# xmcd CD database file
#
# Track frame offsets:
#	150
#	26733
#	62155
#	72924
#	105764
#	141200
#	182640
#
# Disc length: 3101 seconds
#
# Revision: 0
# Processed by: cddbd v1.5.1PL0 Copyright (c) Steve Scherf et al.
# Submitted via: CDex 1.51
#
DISCID=5b0c1b07
DTITLE=Enrico Pieranunzi, Marc Johnson, Joey Baron - Live In Japan (Disc2)
DYEAR=2004
DGENRE=Jazz
TTITLE0=Winter Moon
TTITLE1=Broken Time
TTITLE2=Tokyo Reflections
TTITLE3=Nuovo Cinema Paradiso
TTITLE4=Ninfa Plebea
TTITLE5=When I Think Of You
TTITLE6=Improminor
EXTD=YEAR: 2004
EXTT0=
EXTT1=
EXTT2=
EXTT3=
EXTT4=
EXTT5=
EXTT6=
PLAYORDER=
